<svg version="1" xmlns="http://www.w3.org/2000/svg" width="354.667" height="354.667" viewBox="0 0 266.000000 266.000000"><path d="M119 15C115.9 19.5 7.4 207.8 6.3 210.7c-.4 1.1 16 1.3 93.6 1.3 51.8 0 94.1-.3 94.1-.6 0-1.5-8.6-16.7-11.3-19.9l-2.8-3.5h-66c-36.2 0-65.9-.2-65.9-.5 0-1.2 3.6-7.5 17.5-31 30.8-52.1 74.7-128 80-138.6l2.5-4.8-13.6-.3c-13.6-.3-13.6-.3-15.4 2.2z"/><path d="M147.8 25.2C139.6 38.1 58 180.7 58 182.1c0 .5 5.8.9 12.9.9 11.8 0 13.1-.2 14.4-2 .7-1 15.7-26.9 33.3-57.4C136.1 93 151 68.2 151.5 68.4c1.6.4 9.3 13.4 28.5 47.6 9.7 17.3 22.9 40.3 29.2 51 15.9 26.9 34.9 60.2 38.7 67.7 1.7 3.5 3.5 6.3 3.9 6.3 2.9 0 14.2-18.7 14.2-23.5 0-1.9-1.8-5.9-4.6-10.5-2.5-4.1-7.3-12.2-10.6-18-29.5-51-38.7-67-61-105-14-23.9-27.7-47.6-30.6-52.6-7.2-12.6-7.3-12.7-11.4-6.2z"/><path d="M147.3 85.2c-5.9 9.1-8.3 13.9-8.3 16.8 0 1.3 1.5 4.9 3.4 8 4.3 6.9 61.6 107.1 61.6 107.6 0 .2-45.4.4-101 .4-94.3 0-100.9.1-100.3 1.7 1.3 3.4 11.5 20.8 12.6 21.5 1.3.8 229.7 1.1 229.7.4 0-.5-88.6-154.5-91.9-159.9l-1.8-2.8-4 6.3z"/></svg>